<svg height="512" viewBox="0 0 480 480" width="512" xmlns="http://www.w3.org/2000/svg"><g id="Layer_2" data-name="Layer 2"><g id="_24.X_" data-name="24.X_"><rect id="background" fill="#fff" height="480" rx="240" width="480"/><g fill="#3cb53f"><path id="border" d="m240 20a220.07 220.07 0 0 1 85.63 422.72 220.06 220.06 0 0 1 -171.26-405.44 218.55 218.55 0 0 1 85.63-17.28m0-20c-132.55 0-240 107.45-240 240 0 132.55 107.45 240 240 240 132.55 0 240-107.45 240-240 0-132.55-107.45-240-240-240z"/><path d="m272.55 327.5-32.55-46.2-32.55 46.2h-60.2l62.65-88.9-60.55-86.1h60.2l30.45 43.4 30.45-43.4h60.2l-60.55 86.1 62.65 88.9z"/></g></g></g></svg>